<?xml version="1.0" encoding="utf-8"?>
<!-- Generator: Adobe Illustrator 22.0.0, SVG Export Plug-In . SVG Version: 6.00 Build 0)  -->
<svg version="1.1" id="Layer_1" xmlns="http://www.w3.org/2000/svg" xmlns:xlink="http://www.w3.org/1999/xlink" x="0px" y="0px"
	 viewBox="0 0 332 332" style="enable-background:new 0 0 332 332;" xml:space="preserve">
<style type="text/css">
	.st0{fill:#231F20;}
	.st1{display:none;}
	.st2{display:inline;fill:#231F20;}
	.st3{display:none;fill:#231F20;}
</style>
<g>
	<g>
		<g>
			<g>
				<path class="st0" d="M66.1,293.4c-1.3,0.2-2.8-0.5-4-1.5l-4.9-4.2l10.5-12.3l4.9,4.2c1.1,1,2,2.4,2,3.7c0,0.9-0.2,1.8-0.9,2.7
					c-1,1.2-2.6,1.8-4.1,1.2c0.9,1.5,0.6,3.4-0.5,4.7C68.1,292.9,67.1,293.3,66.1,293.4z M66.9,286.2l-3.5-3l-3.6,4.3l3.4,2.9
					c1.3,1.2,3,1.4,4.2,0C68.7,289.1,68.2,287.3,66.9,286.2z M71.3,280.9l-3.4-2.9l-3.3,3.9l3.4,2.9c1.3,1.1,2.6,1.3,3.8-0.1
					C72.9,283.5,72.5,281.9,71.3,280.9z"/>
				<path class="st0" d="M73.5,300.8l8.8-13.5l9,5.9l-1,1.6L83,290l-2.7,4.1l6.4,4.2l-1,1.6l-6.4-4.2l-3.1,4.7l7.3,4.8l-1,1.6
					L73.5,300.8z"/>
				<path class="st0" d="M99.9,314.2c-1.3,0.4-3.1,0.4-4.6-0.3c-1.4-0.7-2.6-1.9-3.2-3.5c-0.8-2.3,0-4.5,1.1-6.9
					c1.1-2.3,2.4-4.3,4.7-5.1c1.5-0.5,3.2-0.3,4.7,0.4c1.6,0.8,2.7,2.1,3.1,3.4c0.4,1.3,0.4,2.6-0.2,4l-1.9-0.9
					c0.4-0.8,0.4-1.7,0.2-2.4c-0.3-0.9-1-1.8-2.1-2.3c-1-0.5-2.1-0.6-3.2-0.2c-1.8,0.6-2.8,2.6-3.5,4.1c-0.7,1.5-1.7,3.5-1.1,5.3
					c0.3,1.1,1.1,1.9,2.1,2.4c1.1,0.5,2.3,0.5,3.2,0.2c0.7-0.3,1.4-0.9,1.8-1.7l1.9,0.9C102.3,312.9,101.2,313.8,99.9,314.2z"/>
				<path class="st0" d="M118.1,322.7l0-4l-6.6-2.3l-2.5,3.2l-1.9-0.7l10.6-13.4l2.2,0.8l0.1,17.1L118.1,322.7z M118.1,307.8l-5.4,7
					l5.4,1.9L118.1,307.8z"/>
				<path class="st0" d="M133.4,326.9c-3.5-0.7-5.3-3.3-4.5-7.3l2.1-10l2,0.4l-2.1,10c-0.5,2.5,0.2,4.4,2.9,5
					c2.7,0.6,4.1-0.9,4.6-3.4l2.1-10l2,0.4l-2.1,10C139.6,326,137,327.6,133.4,326.9z"/>
				<path class="st0" d="M158.8,328.6c-1.2,1-3,1.4-4.7,1.3c-1.9-0.2-3.5-0.8-4.5-1.9c-0.9-1-1.5-2.5-1.4-4l2.1,0.2
					c-0.1,1,0.3,1.9,0.9,2.6c0.7,0.8,1.9,1.2,3,1.2c1.2,0.1,2.3-0.1,3.1-0.7c0.5-0.4,0.9-1,1-1.8c0.1-1.2-0.6-2.4-2.5-2.8l-2.5-0.6
					c-2.4-0.6-4.1-2-3.9-4.6c0.1-1.2,0.7-2.3,1.7-3.1c1.2-1,2.7-1.4,4.3-1.3c1.6,0.1,3.1,0.8,4,1.9c0.9,1,1.3,2.2,1.3,3.6l-2.1-0.2
					c0-0.8-0.2-1.5-0.6-2.1c-0.6-0.8-1.5-1.2-2.7-1.3c-1.2-0.1-2.2,0.1-2.9,0.9c-0.4,0.4-0.7,1-0.8,1.7c-0.1,1.5,1,2.2,2.2,2.5
					c0.9,0.2,1.8,0.4,2.6,0.6c2.6,0.6,4.3,2.4,4.1,4.9C160.3,326.9,159.7,327.9,158.8,328.6z"/>
				<path class="st0" d="M169.3,330.1l-0.7-16.1l10.8-0.5l0.1,1.9l-8.7,0.4l0.2,4.9l7.7-0.3l0.1,1.9l-7.7,0.3l0.2,5.6l8.7-0.4
					l0.1,1.9L169.3,330.1z"/>
				<path class="st0" d="M199.4,326.8l-3.3-15.8l2-0.4l3.3,15.8L199.4,326.8z"/>
				<path class="st0" d="M220.2,319.4c-0.8,1.4-2,2.3-3.5,2.8l-5.3,1.7l-4.9-15.4l5.3-1.7c1.5-0.5,3.1-0.4,4.5,0.3
					c2.2,1.1,3.2,3.3,3.9,5.5C220.9,314.9,221.3,317.3,220.2,319.4z M215.4,308.8c-0.9-0.5-2.1-0.5-3.1-0.2l-3.4,1.1l3.8,11.8
					l3.4-1.1c1-0.3,1.9-1,2.4-1.9c0.8-1.6,0.3-3.6-0.2-5.3C217.7,311.6,217,309.7,215.4,308.8z"/>
				<path class="st0" d="M231.3,316.8l-6.8-14.6l9.8-4.6l0.8,1.7l-7.9,3.7l2.1,4.5l7-3.3l0.8,1.7l-7,3.2l2.4,5.1l7.9-3.7l0.8,1.7
					L231.3,316.8z"/>
				<path class="st0" d="M257.3,302.7l-3.1-2.5l-5.9,3.7l0.9,3.9l-1.7,1.1l-3.7-16.7l2-1.3l13.4,10.6L257.3,302.7z M245.7,293.3
					l2,8.6l4.8-3L245.7,293.3z"/>
				<path class="st0" d="M272.4,289.5c-0.2,1.6-1.2,3-2.5,4.1c-1.5,1.2-3.1,1.8-4.6,1.7c-1.4-0.1-2.8-0.7-3.8-1.9l1.6-1.3
					c0.6,0.7,1.6,1.2,2.5,1.3c1,0.1,2.1-0.5,3-1.2c1-0.8,1.6-1.6,1.7-2.6c0.1-0.7,0-1.3-0.6-2c-0.8-1-2.1-1.3-3.7-0.3l-2.2,1.3
					c-2.1,1.2-4.4,1.4-6-0.6c-0.8-0.9-1.1-2.2-0.9-3.4c0.2-1.5,1-2.8,2.3-3.9c1.2-1,2.7-1.6,4.2-1.4c1.3,0.1,2.5,0.7,3.4,1.7
					l-1.6,1.3c-0.5-0.6-1.2-0.9-1.9-1.1c-0.9-0.2-1.9,0.1-2.9,0.9c-0.9,0.7-1.5,1.6-1.5,2.7c0,0.6,0.1,1.2,0.6,1.8
					c0.9,1.1,2.3,0.9,3.3,0.2c0.8-0.5,1.6-0.9,2.3-1.4c2.3-1.4,4.7-1.3,6.4,0.7C272.3,287.3,272.5,288.4,272.4,289.5z"/>
				<path class="st0" d="M294.7,268l-1.7-1c0.5,1.5,0.1,3.4-1.1,4.8c-1,1.2-2.4,2.1-4.1,2.3c-2.3,0.2-4.3-0.9-6.5-2.7
					c-2-1.7-3.6-3.4-3.7-5.9c-0.1-1.6,0.4-3.2,1.5-4.4c1.2-1.4,2.7-2.3,4.4-2.4c1.1-0.1,2.3,0.2,3.3,1l-1.4,1.6
					c-0.6-0.4-1.2-0.6-1.8-0.6c-1.1,0-2.2,0.6-3,1.6c-0.7,0.8-1.1,1.9-0.9,3c0.2,1.9,1.8,3.4,3.1,4.4c1.2,1,3.1,2.4,5,2.3
					c1.1-0.1,2-0.6,2.7-1.5c0.7-0.9,1.1-1.9,1-3c-0.1-1.5-1.1-2.7-2.2-3.7l-2.8,3.3l-1.4-1.2l3.9-4.7l6.6,5.6L294.7,268z"/>
				<path class="st0" d="M306.5,250.9l-7.3-1l-2.4,3.8l5.7,3.6l-1.1,1.7l-13.6-8.7l3.4-5.3c1-1.6,2.2-2.4,3.4-2.7
					c1.1-0.2,2.3-0.1,3.4,0.7c1.2,0.8,1.7,1.7,2,2.7c0.2,0.7,0.1,1.5-0.1,2.2l7.7,1.1L306.5,250.9z M292.8,245.9l-2.3,3.6l4.8,3
					l2.3-3.6c1-1.6,1.1-3.2-0.6-4.3C295.2,243.6,293.8,244.3,292.8,245.9z"/>
				<path class="st0" d="M314.9,231.5c0.5,1.5,0.4,3.2-0.3,4.7c-0.7,1.5-1.9,2.6-3.4,3.2c-2.3,0.9-4.6,0.1-6.9-0.9
					c-2.3-1.1-4.3-2.4-5.1-4.7c-0.5-1.5-0.4-3.2,0.3-4.7c0.7-1.5,1.9-2.6,3.4-3.2c2.3-0.9,4.6-0.1,6.9,0.9
					C312.1,227.9,314.1,229.2,314.9,231.5z M303.6,227.8c-1,0.4-1.9,1.2-2.3,2.1c-0.5,1-0.5,2.1-0.2,3.2c0.7,1.8,2.6,2.8,4.1,3.5
					c1.5,0.7,3.5,1.6,5.3,1c1-0.4,1.9-1.2,2.3-2.1c0.5-1,0.5-2.1,0.2-3.2c-0.7-1.8-2.6-2.8-4.1-3.5
					C307.4,228,305.4,227.2,303.6,227.8z"/>
				<path class="st0" d="M324.4,208.5l-0.6,2.1l-13.5-0.2l11.3,7.3l-0.6,2l-16.4-1.6l0.5-1.8l13.3,1.3l-11.3-7.3l0.5-1.7l13.4,0.2
					l-11.8-6.3l0.5-1.8L324.4,208.5z"/>
				<path class="st0" d="M329.5,176.7l-3.9,1l-0.6,7l3.7,1.6l-0.2,2l-15.5-7.1l0.2-2.4l16.6-4.3L329.5,176.7z M315,180.3l8.1,3.6
					l0.5-5.7L315,180.3z"/>
				<path class="st0" d="M328.1,156.7c1.1,1.1,1.7,2.8,1.8,4.5c0.1,2-0.4,3.5-1.4,4.7c-0.9,1.1-2.3,1.8-3.8,1.9l-0.1-2.1
					c1,0,1.9-0.5,2.5-1.2c0.7-0.8,0.9-2,0.9-3.1c0-1.2-0.3-2.3-1-3c-0.5-0.5-1-0.8-1.9-0.8c-1.2,0-2.3,0.9-2.5,2.8l-0.3,2.6
					c-0.3,2.4-1.6,4.4-4.1,4.4c-1.2,0-2.4-0.5-3.2-1.3c-1.1-1.1-1.7-2.5-1.7-4.2c-0.1-1.6,0.4-3.1,1.4-4.2c0.9-1,2-1.6,3.4-1.7
					l0.1,2.1c-0.8,0.1-1.5,0.4-2,0.9c-0.7,0.6-1.1,1.6-1,2.9c0,1.2,0.4,2.1,1.2,2.8c0.5,0.4,1,0.6,1.8,0.6c1.5,0,2.1-1.3,2.2-2.5
					c0.1-0.9,0.2-1.8,0.3-2.7c0.3-2.7,1.9-4.5,4.4-4.6C326.3,155.4,327.3,155.9,328.1,156.7z"/>
				<path class="st0" d="M311.8,134l13.9-3l0.4,2l-13.9,3l1,4.7l-1.8,0.4l-2.5-11.4l1.8-0.4L311.8,134z"/>
				<path class="st0" d="M319.3,109.3l-5.3,5.1l1.5,4.2l6.3-2.2l0.7,1.9l-15.2,5.3l-2.1-6c-0.6-1.8-0.6-3.2,0-4.3
					c0.5-1,1.3-1.8,2.7-2.3c1.3-0.5,2.4-0.3,3.4,0.1c0.6,0.3,1.2,0.8,1.7,1.5l5.6-5.4L319.3,109.3z M306.9,117l1.4,4.1l5.3-1.9
					l-1.4-4.1c-0.6-1.8-1.8-2.8-3.7-2.2C306.6,113.6,306.3,115.2,306.9,117z"/>
				<path class="st0" d="M314.9,98.7l-14.4,7.2l-4.8-9.7l1.7-0.8l3.9,7.8l4.4-2.2l-3.4-6.9l1.7-0.8l3.4,6.9l5-2.5l-3.9-7.8l1.7-0.8
					L314.9,98.7z"/>
				<path class="st0" d="M305.5,81L292,89.9l-5.9-9l1.6-1l4.8,7.3l4.1-2.7l-4.2-6.4l1.6-1.1l4.2,6.4l4.6-3.1l-4.8-7.3l1.6-1
					L305.5,81z"/>
				<path class="st0" d="M286.6,58.2c1.6,0.1,3.1,1.1,4.2,2.4c1.3,1.5,1.9,3,1.8,4.5c-0.1,1.4-0.7,2.8-1.8,3.8l-1.4-1.6
					c0.7-0.6,1.1-1.6,1.2-2.5c0.1-1-0.5-2.1-1.2-3c-0.8-0.9-1.7-1.6-2.7-1.7c-0.7-0.1-1.3,0-2,0.6c-0.9,0.8-1.2,2.1-0.2,3.7l1.4,2.2
					c1.3,2.1,1.5,4.4-0.5,6c-0.9,0.8-2.2,1.1-3.3,1c-1.5-0.2-2.9-0.9-4-2.2c-1-1.2-1.6-2.7-1.5-4.2c0.1-1.3,0.6-2.5,1.6-3.4l1.4,1.6
					c-0.6,0.6-0.9,1.2-1,1.9c-0.1,0.9,0.2,1.9,1,2.9c0.8,0.9,1.6,1.4,2.7,1.5c0.6,0,1.2-0.2,1.8-0.6c1.1-0.9,0.8-2.3,0.2-3.3
					c-0.5-0.8-1-1.5-1.4-2.3c-1.4-2.3-1.4-4.7,0.6-6.4C284.4,58.3,285.5,58.1,286.6,58.2z"/>
			</g>
		</g>
		<path class="st0" d="M33.1,261.2c-10.7-14.8-18.9-31.5-24.2-49c-5.2-17.6-7.5-36-6.6-54.4l0.5-6.9l0.8-6.8l0.2-1.7l0.3-1.7
			l0.6-3.4c0.2-1.1,0.4-2.3,0.6-3.4l0.7-3.4c2-9,4.6-17.8,8.1-26.3c3.5-8.5,7.6-16.8,12.5-24.6l1.8-2.9c0.6-1,1.2-2,1.9-2.9l4-5.6
			l4.2-5.4c0.7-0.9,1.5-1.8,2.2-2.7l2.3-2.6c6.1-6.9,12.7-13.3,19.9-19.2l2.7-2.1l1.4-1.1l0.7-0.5l0.7-0.5l5.6-4l5.8-3.8
			c1-0.6,2-1.2,3-1.8l3-1.7c8-4.5,16.5-8.4,25.2-11.5c2.2-0.7,4.4-1.5,6.6-2.2l6.7-1.9c0.6-0.2,1.1-0.3,1.7-0.4l1.7-0.4l3.4-0.8
			l1.7-0.4l1.7-0.3l3.4-0.6c9.1-1.5,18.3-2.3,27.6-2.3l6.9,0.2l1.7,0.1l1.7,0.1l3.4,0.3c4.6,0.3,9.2,1,13.7,1.8
			c4.5,0.8,9,1.8,13.5,3c4.4,1.2,8.8,2.6,13.1,4.1c4.3,1.6,8.5,3.3,12.7,5.3l1.6,0.7l1.5,0.8c1,0.5,2.1,1,3.1,1.5c1,0.5,2,1.1,3,1.6
			l3,1.7l-0.2,0.3C227.6,15.2,210.1,9.6,192.2,7c-2.2-0.3-4.5-0.6-6.7-0.9l-3.4-0.3c-1.1-0.1-2.3-0.1-3.4-0.2l-3.4-0.2l-1.7-0.1
			l-1.7,0l-6.8-0.1c-9,0.2-18.1,1.1-26.9,2.7c-8.9,1.6-17.6,3.9-26.1,6.9c-8.5,3-16.8,6.7-24.7,11.1l-2.9,1.7c-1,0.6-2,1.1-2.9,1.7
			l-5.7,3.6l-5.6,3.9l-0.7,0.5l-0.7,0.5l-1.3,1l-2.7,2.1c-7.1,5.6-13.7,11.8-19.7,18.6L42.9,62c-0.7,0.9-1.5,1.7-2.2,2.6l-4.2,5.3
			l-4,5.5c-0.7,0.9-1.3,1.9-1.9,2.8l-1.8,2.8c-4.8,7.7-9,15.7-12.5,24.1c-3.5,8.3-6.2,17-8.3,25.9l-0.8,3.3
			c-0.2,1.1-0.4,2.2-0.6,3.3L6,141l-0.3,1.7l-0.2,1.7l-0.9,6.8l-0.5,6.8C3.1,176.1,5,194.4,10,211.9c5,17.5,12.9,34.2,23.4,49.1
			L33.1,261.2z"/>
	</g>
	<g>
		<path class="st0" d="M87.8,156c-10.3,6.7-17.3,21.9-17.3,37.5c0,13.1,5.7,18.3,14,18.3c8.5,0,15.8-5,19.9-10.8l0.9,0.6
			c-4,8.9-13.1,19.6-26.7,19.6c-12.7,0-21.1-8.6-21.1-25.7c0-19.4,17-39.7,33.9-42.7l-0.1,1.3C90.2,154.4,89,155.1,87.8,156z
			 M74.3,185.9l0.1-1.4c3.6-0.8,8.2-2,11.2-3.4c9.7-4.5,14-10.8,14-18.8c0-5.6-1.5-7.7-4.5-8.1l0.1-1.3c7.9,0.5,13.9,3.4,13.9,10.8
			C109.3,174.3,93.4,182.9,74.3,185.9z"/>
		<path class="st0" d="M136.5,152.9l0.3,0.3L124.4,220h-12.5l12.1-64.8L136.5,152.9z M156.4,152.9c1.6,0,3,0.3,4,0.8l-2.4,11.4
			c-1.2-0.8-2.8-1.1-4.8-1.1c-5.2,0-11.5,2.7-16.4,9.4v-1.1C139.5,164.9,147.7,152.9,156.4,152.9z"/>
		<path class="st0" d="M188.8,112.4l0.3,0.3L168.9,220h-12.5l19.7-105.3L188.8,112.4z M207.5,171.7c0-6.1-1.3-11-6.9-11
			c-6,0-13.3,4.7-18.5,9.2v-1.4c6-8,16.9-15.6,26-15.6c9,0,12.7,4.8,12.7,16.3c0,29.4-23.6,50.1-46.3,50.8l0.3-1.3
			C189.1,217,207.5,196.7,207.5,171.7z"/>
		<g class="st1">
			<path class="st2" d="M137.6,168.5v1.4c5.2-4.5,12.5-9.2,18.5-9.2c1.1,0,1.9,0.2,2.7,0.5l1.8-8.1
				C152.2,154.5,142.9,161.4,137.6,168.5z"/>
		</g>
		<path class="st0" d="M248.5,121.4c-3.1,5.5-15.1,20.7-18.7,26.9h-2.4l10-26.9H248.5z"/>
		<path class="st0" d="M258.6,208.3c0-5.5-3.1-10.6-8.4-17.7c-4.9-6.7-8.5-12-8.5-18.9c0-9.5,7.3-17.5,21.8-18.8l-0.3,1.3
			c-5.5,1.1-10.8,3.9-10.8,11.4c0,6.7,3.9,11.3,8.8,18c4,5.5,8.4,11.7,8.4,18.1c0,11.9-10.5,18.8-25.2,19.6l0.3-1.3
			C252.7,219.2,258.6,215.3,258.6,208.3z"/>
		<path class="st3" d="M230.7,211.6c0-3.6,2.7-6.3,5.8-6.3c3.4,0,6,2.7,6,6.3c0,3.6-2.5,6.3-6,6.3
			C233.4,217.8,230.7,215.2,230.7,211.6z"/>
	</g>
	<g>
		<path class="st0" d="M270.5,160.5c0-0.6-0.4-0.8-0.9-0.8h-1.2v1.6h1.2C270.1,161.3,270.5,161.1,270.5,160.5z"/>
		<path class="st0" d="M269.4,155.4c-3.1,0-5.7,2.5-5.7,6.1c0,3.6,2.5,6.1,5.7,6.1c3.4,0,5.8-2.5,5.8-6.1
			C275.2,157.9,272.8,155.4,269.4,155.4z M270.5,163.8l-0.9-1.9h-1.3v1.9h-0.6v-4.6h1.8c0.5,0,0.9,0.1,1.2,0.4
			c0.2,0.2,0.4,0.5,0.4,0.9c0,0.4-0.1,0.7-0.4,0.9c-0.1,0.1-0.3,0.3-0.6,0.3l0.9,2H270.5z"/>
	</g>
</g>
</svg>
